<svg xmlns="http://www.w3.org/2000/svg" viewBox="0 0 260 100">
  <rect width="100%" height="100%" fill="#0d1117"/>
  
  <!-- DRAGON II - shifted right by 15 -->
  <g fill="#B8860B">
    <!-- D -->
    <rect x="45" y="10" width="5" height="35"/>
    <rect x="50" y="10" width="10" height="5"/>
    <rect x="60" y="15" width="5" height="25"/>
    <rect x="50" y="40" width="10" height="5"/>
    <!-- R -->
    <rect x="70" y="10" width="5" height="35"/>
    <rect x="75" y="10" width="10" height="5"/>
    <rect x="85" y="15" width="5" height="8"/>
    <rect x="75" y="23" width="10" height="5"/>
    <rect x="82" y="28" width="5" height="17"/>
    <!-- A -->
    <rect x="95" y="15" width="5" height="30"/>
    <rect x="100" y="10" width="10" height="5"/>
    <rect x="110" y="15" width="5" height="30"/>
    <rect x="100" y="25" width="10" height="5"/>
    <!-- G -->
    <rect x="120" y="10" width="5" height="35"/>
    <rect x="125" y="10" width="15" height="5"/>
    <rect x="125" y="40" width="15" height="5"/>
    <rect x="135" y="25" width="5" height="20"/>
    <rect x="130" y="25" width="5" height="5"/>
    <!-- O -->
    <rect x="145" y="10" width="5" height="35"/>
    <rect x="150" y="10" width="10" height="5"/>
    <rect x="150" y="40" width="10" height="5"/>
    <rect x="160" y="10" width="5" height="35"/>
    <!-- N -->
    <rect x="170" y="10" width="5" height="35"/>
    <rect x="175" y="15" width="5" height="8"/>
    <rect x="180" y="23" width="5" height="8"/>
    <rect x="185" y="10" width="5" height="35"/>
    <!-- I -->
    <rect x="200" y="10" width="5" height="35"/>
    <!-- I -->
    <rect x="210" y="10" width="5" height="35"/>
  </g>

  <!-- COMBUSTION - shifted right by 15 -->
  <g fill="#996515">
    <!-- C -->
    <rect x="35" y="55" width="4" height="25"/>
    <rect x="39" y="55" width="10" height="4"/>
    <rect x="39" y="76" width="10" height="4"/>
    <!-- O -->
    <rect x="54" y="55" width="4" height="25"/>
    <rect x="58" y="55" width="8" height="4"/>
    <rect x="58" y="76" width="8" height="4"/>
    <rect x="66" y="55" width="4" height="25"/>
    <!-- M -->
    <rect x="75" y="55" width="4" height="25"/>
    <rect x="79" y="59" width="4" height="6"/>
    <rect x="83" y="65" width="4" height="6"/>
    <rect x="87" y="59" width="4" height="6"/>
    <rect x="91" y="55" width="4" height="25"/>
    <!-- B -->
    <rect x="100" y="55" width="4" height="25"/>
    <rect x="104" y="55" width="8" height="4"/>
    <rect x="104" y="64" width="8" height="4"/>
    <rect x="104" y="76" width="8" height="4"/>
    <rect x="112" y="59" width="4" height="5"/>
    <rect x="112" y="68" width="4" height="8"/>
    <!-- U -->
    <rect x="121" y="55" width="4" height="25"/>
    <rect x="125" y="76" width="8" height="4"/>
    <rect x="133" y="55" width="4" height="25"/>
    <!-- S -->
    <rect x="142" y="55" width="14" height="4"/>
    <rect x="142" y="59" width="4" height="9"/>
    <rect x="142" y="64" width="14" height="4"/>
    <rect x="152" y="68" width="4" height="8"/>
    <rect x="142" y="76" width="14" height="4"/>
    <!-- T -->
    <rect x="161" y="55" width="14" height="4"/>
    <rect x="166" y="59" width="4" height="21"/>
    <!-- I -->
    <rect x="180" y="55" width="4" height="25"/>
    <!-- O -->
    <rect x="189" y="55" width="4" height="25"/>
    <rect x="193" y="55" width="8" height="4"/>
    <rect x="193" y="76" width="8" height="4"/>
    <rect x="201" y="55" width="4" height="25"/>
    <!-- N -->
    <rect x="210" y="55" width="4" height="25"/>
    <rect x="214" y="60" width="4" height="6"/>
    <rect x="218" y="66" width="4" height="6"/>
    <rect x="222" y="55" width="4" height="25"/>
  </g>
</svg>
